<svg width="51" height="51" viewBox="0 0 51 51" fill="none" xmlns="http://www.w3.org/2000/svg">
<path d="M45.3262 27.4337C45.5175 30.7275 44.0088 33.8938 41.31 35.8275L42.9462 38.9938C43.435 39.95 43.4987 41.0762 43.0737 42.075C42.67 43.0737 41.8412 43.86 40.8212 44.2L39.1425 44.7313C38.4434 44.9658 37.689 44.9795 36.9819 44.7704C36.2748 44.5612 35.6491 44.1395 35.19 43.5625L30.685 38.25C28.7937 37.9313 27.0087 37.1237 25.5 35.9125C24.4375 36.2312 23.375 36.4012 22.3125 36.4012C20.4425 36.4012 18.5725 35.8275 17 34.7225C15.8737 35.0625 14.7262 35.2112 13.5575 35.19C11.8787 35.2112 10.2212 34.8713 8.67 34.2338C7.17609 33.5686 5.89956 32.4963 4.98639 31.1397C4.07322 29.7831 3.56028 28.1969 3.50625 26.5625C3.33625 25.0325 3.59125 23.4813 4.25 22.0788C3.63375 20.485 3.57 18.7425 4.10125 17.1275C4.8875 15.1088 6.375 13.43 8.22375 12.3675C9.45625 8.77625 12.92 6.375 16.7237 6.63C20.1237 3.4425 25.33 3.1025 29.1125 5.84375C30.005 5.61 30.94 5.4825 31.875 5.4825C34.765 5.41875 37.5062 6.69375 39.3125 8.9675C43.6475 10.0937 46.75 13.9612 46.92 18.4662C47.0262 20.825 46.3887 23.1412 45.0925 25.1175C45.2412 25.8825 45.3262 26.6475 45.3262 27.4337ZM34.7013 24.4375C35.9125 24.5863 36.8688 25.5 36.8688 26.7112C36.8688 27.2748 36.6449 27.8153 36.2463 28.2139C35.8478 28.6124 35.3073 28.8362 34.7437 28.8362H33.405C32.725 30.7487 31.535 32.4275 29.9625 33.7025C30.4937 33.8937 31.0462 34 31.5987 34.1487C42.5 34 41.225 27.3487 41.225 27.2425C41.1976 26.5196 41.028 25.8091 40.7258 25.1518C40.4236 24.4945 39.9948 23.9032 39.4639 23.4118C38.933 22.9203 38.3104 22.5384 37.6317 22.2878C36.9531 22.0371 36.2316 21.9228 35.5087 21.9513C34.9452 21.9513 34.4047 21.7274 34.0061 21.3288C33.6076 20.9303 33.3837 20.3898 33.3837 19.8262C33.3837 19.2627 33.6076 18.7222 34.0061 18.3236C34.4047 17.9251 34.9452 17.7012 35.5087 17.7012C38.1225 17.765 40.63 18.7425 42.585 20.4637C42.6912 19.8475 42.755 19.21 42.755 18.5725C42.6275 15.9375 41.4375 13.6425 36.6562 13.1962C34 6.90625 27.3062 10.3912 27.3062 12.3462C27.2425 12.835 27.7525 13.8762 27.8375 13.94C28.4011 13.94 28.9416 14.1639 29.3401 14.5624C29.7386 14.9609 29.9625 15.5014 29.9625 16.065C29.9625 17.2337 29.0063 18.19 27.8375 18.19C26.7113 18.1475 25.6488 17.7225 24.7987 17C23.7787 17.6587 22.61 18.0625 21.3987 18.19C20.1875 18.2963 19.1887 17.4462 19.125 16.2775C19.0865 16 19.1049 15.7176 19.1792 15.4475C19.2535 15.1773 19.3821 14.9252 19.5571 14.7064C19.7321 14.4877 19.9499 14.3069 20.1971 14.1751C20.4443 14.0433 20.7158 13.9633 20.995 13.94C21.335 13.8975 22.9925 13.6425 22.9925 12.3038C22.9925 10.9012 23.5238 9.5625 24.4375 8.5C22.4825 7.96875 20.3787 8.67 18.2537 11.2413C14.3438 10.625 12.75 11.1562 11.5812 15.3C9.5625 16.2987 8.5 17 8.0325 19.125C10.3275 18.6575 12.6862 18.8487 14.875 19.6562C15.9375 20.06 16.5325 21.25 16.1287 22.3975C15.725 23.5025 14.4925 24.055 13.3875 23.6512C11.8363 22.9713 10.0937 22.9287 8.5 23.5237C7.82 24.0975 7.82 25.2875 7.82 26.2225C7.82 27.795 8.60625 29.2612 9.945 30.1112C11.0712 30.685 12.325 30.9825 13.5787 30.9612C13.26 30.4087 12.9837 29.835 12.75 29.24C12.5827 28.694 12.6337 28.1045 12.8922 27.5953C13.1506 27.0861 13.5965 26.6971 14.136 26.5099C14.6755 26.3227 15.2665 26.3521 15.7848 26.5917C16.3031 26.8314 16.7082 27.2627 16.915 27.795C17.765 30.2175 19.9325 31.875 22.4825 32.1512C25.3937 32.0025 27.9862 30.2812 29.2612 27.625C29.75 24.6925 32.1087 24.4375 34.7013 24.4375ZM38.9512 40.3112L37.6337 37.5487L36.125 37.8887L38.25 40.545L38.9512 40.3112ZM29.07 22.015C29.0885 21.4721 28.8984 20.9428 28.5387 20.5358C28.1791 20.1287 27.6772 19.8748 27.1362 19.8262C25.6275 19.7412 24.1612 20.2512 23.035 21.25C21.8237 22.4825 21.1862 24.1825 21.25 25.9037C21.25 26.4673 21.4739 27.0078 21.8724 27.4064C22.2709 27.8049 22.8114 28.0287 23.375 28.0287C24.5863 28.0287 25.5 27.0725 25.5 25.9037C25.5 25.33 25.6487 24.7563 25.9887 24.2887C26.2437 24.0763 26.5625 23.97 26.9025 23.97C28.0712 24.0337 29.07 23.1625 29.07 22.015Z" fill="#FFCD29"/>
</svg>
