<svg width="46" height="46" viewBox="0 0 46 46" fill="none" xmlns="http://www.w3.org/2000/svg">
<path fill-rule="evenodd" clip-rule="evenodd" d="M6.63925 6.63931C3.83325 9.44915 3.83325 13.9648 3.83325 23C3.83325 32.0351 3.83325 36.5527 6.63925 39.3587C9.44909 42.1666 13.9648 42.1666 22.9999 42.1666C32.0351 42.1666 36.5527 42.1666 39.3587 39.3587C42.1666 36.5546 42.1666 32.0351 42.1666 23C42.1666 13.9648 42.1666 9.44723 39.3587 6.63931C36.5546 3.83331 32.0351 3.83331 22.9999 3.83331C13.9648 3.83331 9.44717 3.83331 6.63925 6.63931ZM33.6873 20.0866C33.9205 19.7927 34.0296 19.4191 33.9911 19.0458C33.9526 18.6725 33.7697 18.3291 33.4814 18.0888C33.1931 17.8486 32.8223 17.7306 32.4482 17.7601C32.0741 17.7896 31.7263 17.9642 31.4793 18.2466L28.035 22.379C27.3258 23.2319 26.8869 23.7513 26.5285 24.0752C26.4347 24.1662 26.3298 24.2447 26.2161 24.3091L26.195 24.3186L26.1797 24.311L26.1739 24.3091C26.0596 24.2449 25.9539 24.1663 25.8596 24.0752C25.5012 23.7494 25.0642 23.2319 24.3531 22.379L23.7934 21.7081C23.1648 20.9511 22.5955 20.2706 22.0665 19.7915C21.4896 19.2701 20.7632 18.8063 19.8048 18.8063C18.8465 18.8063 18.122 19.2701 17.5432 19.7915C17.0142 20.2706 16.4468 20.9511 15.8182 21.7081L12.3107 25.9133C12.1899 26.0584 12.0988 26.2259 12.0427 26.4062C11.9866 26.5865 11.9666 26.7761 11.9838 26.9641C12.0185 27.3439 12.2026 27.6943 12.4956 27.9383C12.7887 28.1823 13.1667 28.2999 13.5464 28.2652C13.9262 28.2305 14.2766 28.0464 14.5206 27.7533L17.9648 23.621C18.674 22.7681 19.1129 22.2486 19.4713 21.9247C19.5651 21.8338 19.6701 21.7552 19.7838 21.6909L19.7972 21.6851L19.8048 21.6813L19.8259 21.6909C19.9403 21.7551 20.0459 21.8337 20.1403 21.9247C20.4987 22.2506 20.9357 22.7681 21.6468 23.621L22.2064 24.2918C22.837 25.0489 23.4043 25.7293 23.9333 26.2085C24.5103 26.7298 25.2367 27.1936 26.195 27.1936C27.1533 27.1936 27.8778 26.7298 28.4567 26.2085C28.9857 25.7293 29.553 25.0489 30.1817 24.2918L33.6873 20.0866Z" fill="#FFCD29"/>
</svg>
