<svg width="46" height="46" viewBox="0 0 46 46" fill="none" xmlns="http://www.w3.org/2000/svg">
<path d="M39.7749 22.1303C37.9644 21.137 31.6236 19.0821 26.3479 17.5447L30.1774 13.5894L30.5929 14.0199L31.5078 13.0755L31.0924 12.6442L33.7403 9.90797L33.2336 9.38328L35.8814 6.64844L33.6217 4.3125L30.9731 7.04806L30.4635 6.52338L27.8135 9.25894L26.8216 8.23544L20.7043 14.5619L21.4755 15.3618L26.6656 9.99566L26.8927 10.2113L21.2901 15.9979C16.2337 13.6792 14.3175 16.2387 11.6977 19.775C10.2638 21.7098 8.47837 24.1191 5.70041 26.4651C4.79191 27.2306 3.86112 28.5487 3.97541 29.9532C4.03147 30.6504 4.38797 31.6379 5.66878 32.5047L2.94184 37.5626L1.4375 39.1194L2.18213 39.8892L3.69366 38.3288L7.19613 36.3184C7.84947 37.1903 8.85716 37.8091 9.88569 37.9105C12.3589 38.1577 14.4548 39.0784 16.4824 39.969C18.4927 40.853 20.3909 41.6875 22.3733 41.6875C24.9873 41.6875 27.0286 41.3332 29.1884 40.9573C31.9923 40.4707 35.1706 39.9194 40.5382 39.9194C42.5349 39.9194 43.9422 38.2878 44.3993 35.4459C45.2065 30.4463 42.9151 23.851 39.7749 22.1303ZM18.6925 29.7412C18.0033 29.4235 17.3478 29.1223 16.8073 28.9239C16.7677 28.9096 16.7239 28.8973 16.6843 28.883C16.9948 28.3964 17.6259 27.572 18.8708 26.4076C18.7766 27.7862 18.7198 29.0605 18.6925 29.7412ZM30.4642 7.81353L32.4925 9.90797L30.4685 11.9981L28.4402 9.90366L30.4642 7.81353ZM27.5238 10.8502L29.5521 12.9447L14.5295 28.4611C12.5566 28.3353 10.1876 28.8729 8.14847 30.8638L27.5238 10.8502ZM6.63838 27.5763C9.57447 25.1555 11.3864 22.6377 12.8656 20.6425C15.4129 17.2047 16.744 15.203 20.516 16.7986L7.19756 30.5562C6.53847 30.1674 4.97662 28.9462 6.63838 27.5763ZM4.28734 36.9473L6.41412 32.9885L6.59741 33.1775C6.36801 33.9358 6.40891 34.7503 6.71313 35.4818L4.28734 36.9473ZM43.3737 35.0189C43.1789 36.2322 41.7141 37.8839 40.0588 37.8839C34.5654 37.8839 31.8004 38.6932 28.9326 39.1575C23.3809 40.0552 19.2603 38.9131 17.4663 37.7696C12.9698 34.9047 10.5182 36.3824 8.45178 34.7904C7.78694 34.2779 7.84659 33.0258 8.49706 32.2431C11.3721 28.7917 15.1153 29.3703 16.33 29.9467C19.8267 31.607 23.0065 31.8514 23.8568 31.666C24.7085 31.492 25.4617 31.0292 26.0497 30.4491C25.3812 30.94 24.6007 31.2635 23.8043 31.3059C23.0101 31.3612 20.723 30.6475 20.3356 30.4815C20.1954 29.7936 19.9697 28.5674 19.9489 27.6683C21.3821 29.1295 22.9576 29.5004 22.9576 29.5004L19.8921 25.4581C19.8921 25.4581 24.3771 20.5196 27.3614 19.0038C32.3854 20.4786 37.6654 22.1332 39.1848 22.9669C41.7709 24.3836 44.0709 30.6978 43.3737 35.0189Z" fill="#FFCD29"/>
</svg>
