<svg width="41" height="41" viewBox="0 0 41 41" fill="none" xmlns="http://www.w3.org/2000/svg">
<path d="M13.3251 3.41675H27.6751C33.1418 3.41675 37.5834 7.85842 37.5834 13.3251V27.6751C37.5834 30.3029 36.5395 32.8232 34.6813 34.6813C32.8232 36.5395 30.3029 37.5834 27.6751 37.5834H13.3251C7.85842 37.5834 3.41675 33.1418 3.41675 27.6751V13.3251C3.41675 10.6972 4.46066 8.177 6.31883 6.31883C8.177 4.46066 10.6972 3.41675 13.3251 3.41675ZM12.9834 6.83341C11.3523 6.83341 9.78806 7.48136 8.63471 8.63471C7.48136 9.78806 6.83341 11.3523 6.83341 12.9834V28.0167C6.83341 31.4163 9.58383 34.1667 12.9834 34.1667H28.0167C29.6478 34.1667 31.2121 33.5188 32.3655 32.3655C33.5188 31.2121 34.1667 29.6478 34.1667 28.0167V12.9834C34.1667 9.58383 31.4163 6.83341 28.0167 6.83341H12.9834ZM29.4688 9.39591C30.0352 9.39591 30.5783 9.6209 30.9788 10.0214C31.3793 10.4218 31.6042 10.965 31.6042 11.5313C31.6042 12.0977 31.3793 12.6408 30.9788 13.0413C30.5783 13.4418 30.0352 13.6667 29.4688 13.6667C28.9025 13.6667 28.3593 13.4418 27.9589 13.0413C27.5584 12.6408 27.3334 12.0977 27.3334 11.5313C27.3334 10.965 27.5584 10.4218 27.9589 10.0214C28.3593 9.6209 28.9025 9.39591 29.4688 9.39591ZM20.5001 11.9584C22.7655 11.9584 24.9381 12.8583 26.54 14.4602C28.1418 16.0621 29.0417 18.2347 29.0417 20.5001C29.0417 22.7655 28.1418 24.9381 26.54 26.54C24.9381 28.1418 22.7655 29.0417 20.5001 29.0417C18.2347 29.0417 16.0621 28.1418 14.4602 26.54C12.8583 24.9381 11.9584 22.7655 11.9584 20.5001C11.9584 18.2347 12.8583 16.0621 14.4602 14.4602C16.0621 12.8583 18.2347 11.9584 20.5001 11.9584ZM20.5001 15.3751C19.1408 15.3751 17.8373 15.915 16.8762 16.8762C15.915 17.8373 15.3751 19.1408 15.3751 20.5001C15.3751 21.8593 15.915 23.1629 16.8762 24.124C17.8373 25.0851 19.1408 25.6251 20.5001 25.6251C21.8593 25.6251 23.1629 25.0851 24.124 24.124C25.0851 23.1629 25.6251 21.8593 25.6251 20.5001C25.6251 19.1408 25.0851 17.8373 24.124 16.8762C23.1629 15.915 21.8593 15.3751 20.5001 15.3751Z" fill="#FFCD29"/>
</svg>
