<svg width="41" height="41" viewBox="0 0 41 41" fill="none" xmlns="http://www.w3.org/2000/svg">
<path d="M6.83329 34.1666C5.89371 34.1666 5.08965 33.8323 4.42113 33.1638C3.7526 32.4953 3.41776 31.6906 3.41663 30.7499V10.2499C3.41663 9.31034 3.75146 8.50628 4.42113 7.83775C5.09079 7.16922 5.89485 6.83439 6.83329 6.83325H34.1666C35.1062 6.83325 35.9108 7.16808 36.5805 7.83775C37.2502 8.50742 37.5844 9.31147 37.5833 10.2499V30.7499C37.5833 31.6895 37.249 32.4941 36.5805 33.1638C35.912 33.8335 35.1073 34.1677 34.1666 34.1666H6.83329ZM20.5 22.2083L34.1666 13.6666V10.2499L20.5 18.7916L6.83329 10.2499V13.6666L20.5 22.2083Z" fill="#FFCD29"/>
</svg>
