<svg width="51" height="51" viewBox="0 0 51 51" fill="none" xmlns="http://www.w3.org/2000/svg">
<path d="M25.5 46.75C22.7094 46.75 19.9461 46.2004 17.368 45.1324C14.7898 44.0645 12.4472 42.4993 10.474 40.526C6.48883 36.5409 4.25 31.1359 4.25 25.5C4.25 19.8641 6.48883 14.4591 10.474 10.474C14.4591 6.48883 19.8641 4.25 25.5 4.25C37.1875 4.25 46.75 12.75 46.75 23.375C46.75 26.7565 45.4067 29.9995 43.0156 32.3906C40.6245 34.7817 37.3815 36.125 34 36.125H30.175C29.5375 36.125 29.1125 36.55 29.1125 37.1875C29.1125 37.4 29.325 37.6125 29.325 37.825C30.175 38.8875 30.6 40.1625 30.6 41.4375C30.8125 44.4125 28.475 46.75 25.5 46.75ZM25.5 8.5C20.9913 8.5 16.6673 10.2911 13.4792 13.4792C10.2911 16.6673 8.5 20.9913 8.5 25.5C8.5 30.0087 10.2911 34.3327 13.4792 37.5208C16.6673 40.7089 20.9913 42.5 25.5 42.5C26.1375 42.5 26.5625 42.075 26.5625 41.4375C26.5625 41.0125 26.35 40.8 26.35 40.5875C25.5 39.525 25.075 38.4625 25.075 37.1875C25.075 34.2125 27.4125 31.875 30.3875 31.875H34C36.2543 31.875 38.4163 30.9795 40.0104 29.3854C41.6045 27.7913 42.5 25.6293 42.5 23.375C42.5 15.0875 34.85 8.5 25.5 8.5ZM13.8125 21.25C15.5125 21.25 17 22.7375 17 24.4375C17 26.1375 15.5125 27.625 13.8125 27.625C12.1125 27.625 10.625 26.1375 10.625 24.4375C10.625 22.7375 12.1125 21.25 13.8125 21.25ZM20.1875 12.75C21.8875 12.75 23.375 14.2375 23.375 15.9375C23.375 17.6375 21.8875 19.125 20.1875 19.125C18.4875 19.125 17 17.6375 17 15.9375C17 14.2375 18.4875 12.75 20.1875 12.75ZM30.8125 12.75C32.5125 12.75 34 14.2375 34 15.9375C34 17.6375 32.5125 19.125 30.8125 19.125C29.1125 19.125 27.625 17.6375 27.625 15.9375C27.625 14.2375 29.1125 12.75 30.8125 12.75ZM37.1875 21.25C38.8875 21.25 40.375 22.7375 40.375 24.4375C40.375 26.1375 38.8875 27.625 37.1875 27.625C35.4875 27.625 34 26.1375 34 24.4375C34 22.7375 35.4875 21.25 37.1875 21.25Z" fill="#FFCD29"/>
</svg>
