<svg width="41" height="41" viewBox="0 0 41 41" fill="none" xmlns="http://www.w3.org/2000/svg">
<path fill-rule="evenodd" clip-rule="evenodd" d="M20.5 3.41675C11.0648 3.41675 3.41663 11.065 3.41663 20.5001C3.41663 23.7288 4.3135 26.7526 5.87321 29.3287L4.34938 34.5084C4.26188 34.8058 4.25613 35.1213 4.33271 35.4217C4.40929 35.722 4.56539 35.9963 4.78459 36.2155C5.00379 36.4347 5.27799 36.5907 5.57838 36.6673C5.87876 36.7439 6.19423 36.7382 6.49163 36.6507L11.6713 35.1268C14.3341 36.7377 17.3878 37.5874 20.5 37.5834C29.9351 37.5834 37.5833 29.9352 37.5833 20.5001C37.5833 11.065 29.9351 3.41675 20.5 3.41675ZM16.6357 24.366C20.0917 27.8203 23.3905 28.2764 24.5555 28.3191C26.3271 28.384 28.0525 27.031 28.7239 25.4611C28.8079 25.2656 28.8383 25.0513 28.8119 24.8402C28.7854 24.6291 28.7032 24.4288 28.5735 24.2601C27.6374 23.0643 26.3715 22.205 25.1347 21.3508C24.8766 21.1719 24.5591 21.1 24.2491 21.1503C23.9391 21.2007 23.6607 21.3693 23.4725 21.6207L22.4475 23.1839C22.3933 23.2676 22.3093 23.3276 22.2126 23.3517C22.1158 23.3758 22.0135 23.3622 21.9264 23.3137C21.2311 22.9157 20.2181 22.2392 19.4903 21.5114C18.7626 20.7837 18.1271 19.8167 17.77 19.1659C17.7269 19.0829 17.7146 18.9873 17.7356 18.8962C17.7566 18.8051 17.8094 18.7244 17.8845 18.6687L19.463 17.4968C19.6889 17.3014 19.8348 17.0294 19.8726 16.7331C19.9104 16.4368 19.8376 16.1369 19.668 15.891C18.9027 14.7703 18.0109 13.3456 16.7177 12.4009C16.5505 12.2807 16.355 12.2058 16.1503 12.1833C15.9456 12.1609 15.7385 12.1917 15.5492 12.2727C13.9775 12.9458 12.6177 14.6712 12.6826 16.4462C12.7253 17.6113 13.1815 20.9101 16.6357 24.366Z" fill="#FFCD29"/>
</svg>
